<?xml version="1.0" encoding="utf-8"?>
<!-- Generator: Adobe Illustrator 24.1.2, SVG Export Plug-In . SVG Version: 6.00 Build 0)  -->
<svg version="1.1" id="Warstwa_3" xmlns="http://www.w3.org/2000/svg" xmlns:xlink="http://www.w3.org/1999/xlink" x="0px" y="0px"
	 viewBox="0 0 430 430" style="enable-background:new 0 0 430 430;" xml:space="preserve">
<style type="text/css">
	.st0{fill:#08a88a;}
	.st1{fill:#121331;}
	.st2{fill:none;stroke:#08a88a;stroke-width:12;stroke-linecap:round;stroke-linejoin:round;stroke-miterlimit:10;}
	.st3{fill:none;stroke:#121331;stroke-width:12;stroke-linecap:round;stroke-linejoin:round;stroke-miterlimit:10;}
	.st4{fill:#08a88a;}
	.st5{fill:#FFFFFF;stroke:#08a88a;stroke-width:12;stroke-linecap:round;stroke-linejoin:round;stroke-miterlimit:10;}
</style>
<g>
	<g>
		<path class="st1" d="M318.63,183.94c-17.14,0-31.03-13.42-31.62-30.54l-0.83-23.99c-0.3-8.65,2.85-16.85,8.86-23.08
			s14.1-9.66,22.76-9.66h1.67c8.66,0,16.74,3.43,22.76,9.66s9.16,14.43,8.86,23.08l-0.83,23.99
			C349.65,170.53,335.76,183.94,318.63,183.94z M317.79,108.67c-5.38,0-10.39,2.13-14.13,6c-3.73,3.87-5.69,8.95-5.5,14.33
			l0.83,23.99c0.37,10.63,8.99,18.96,19.63,18.96c10.64,0,19.26-8.33,19.63-18.96l0.83-23.99c0.19-5.37-1.77-10.46-5.5-14.33
			c-3.73-3.87-8.75-6-14.13-6H317.79z"/>
		<path class="st1" d="M111.38,183.94c-17.14,0-31.03-13.42-31.62-30.54l-0.83-23.99c-0.3-8.65,2.85-16.85,8.86-23.08
			s14.1-9.66,22.76-9.66h1.67c8.66,0,16.74,3.43,22.76,9.66s9.16,14.43,8.86,23.08L143,153.4
			C142.4,170.53,128.51,183.94,111.38,183.94z M110.54,108.67c-5.38,0-10.39,2.13-14.13,6c-3.73,3.87-5.69,8.95-5.5,14.33
			l0.83,23.99c0.37,10.63,8.99,18.96,19.63,18.96c10.64,0,19.26-8.33,19.63-18.96l0.83-23.99c0.19-5.37-1.77-10.46-5.5-14.33
			c-3.73-3.87-8.75-6-14.13-6H110.54z"/>
		<g>
			<path class="st1" d="M337.46,197.17H299.8c-10.13,0-19.66,3.4-27.39,9.66c-9.29-7.04-20.6-10.87-32.39-10.87h-47.7
				c-12.38,0-24.1,4.17-33.6,11.82c-7.88-6.79-17.98-10.61-28.51-10.61H92.55c-24.08,0-43.67,19.59-43.67,43.66v12.6
				c0,6.5,4.87,11.97,11.34,12.72l12.5,1.44c3.18,0.36,6.31,1.18,9.26,2.4c0.04,0.02,0.09,0.04,0.13,0.06
				c9.28,3.85,19.07,5.81,29.12,5.81c9.72,0,19.2-1.85,28.21-5.45c1.79,5.18,6.41,9.09,12.13,9.75l15.82,1.82
				c4.2,0.49,8.31,1.55,12.22,3.18l0.12,0.05c11.56,4.8,23.77,7.24,36.28,7.24c6.76,0,13.54-0.73,20.15-2.18
				c3.24-0.71,5.29-3.91,4.58-7.14c-0.71-3.24-3.91-5.29-7.14-4.58c-5.77,1.26-11.69,1.9-17.59,1.9c-10.92,0-21.58-2.13-31.68-6.32
				l-0.11-0.05c-4.93-2.05-10.13-3.41-15.45-4.02l-15.82-1.82c-1.32-0.15-2.31-1.27-2.31-2.61v-15.95
				c0-11.11,4.32-21.57,12.16-29.44c7.88-7.91,18.37-12.27,29.54-12.27h47.7c10.61,0,20.72,3.99,28.47,11.23
				c4.77,4.45,8.47,10.02,10.7,16.1c1.14,3.11,4.59,4.71,7.7,3.56c3.11-1.14,4.71-4.59,3.56-7.7c-2.12-5.79-5.28-11.2-9.25-15.95
				c5.37-3.92,11.8-6.04,18.6-6.04h37.66c17.46,0,31.66,14.2,31.66,31.66v12.6c0,0.41-0.31,0.75-0.71,0.8l-13.19,1.52
				c-4.15,0.48-8.2,1.54-12.02,3.14c-0.02,0.01-0.05,0.02-0.07,0.03c-2.96,1.18-4.5,4.48-3.45,7.53c0.86,2.49,3.18,4.05,5.67,4.05
				c0.65,0,1.31-0.11,1.95-0.33c0.1-0.04,0.22-0.08,0.35-0.13c0.04-0.02,0.08-0.03,0.12-0.05c2.81-1.18,5.79-1.96,8.84-2.31
				l13.19-1.52c6.46-0.75,11.32-6.22,11.32-12.72v-12.6C381.12,216.75,361.53,197.17,337.46,197.17z M138.62,249.67v8.21
				c-0.93,0.32-1.85,0.66-2.74,1.03c-7.85,3.28-16.14,4.95-24.65,4.95c-8.46,0-16.71-1.65-24.48-4.88
				c-0.04-0.02-0.09-0.04-0.13-0.06c-4.02-1.67-8.24-2.77-12.54-3.26l-12.48-1.44c-0.41-0.05-0.73-0.4-0.73-0.8v-12.6
				c0-17.46,14.21-31.66,31.67-31.66h37.66c7.35,0,14.41,2.56,20.03,7.15C142.72,225.77,138.62,237.4,138.62,249.67z"/>
			<path class="st1" d="M216.17,181.26c-21.8,0-39.48-17.07-40.24-38.86l-1.12-32.06c-0.38-11.01,3.62-21.44,11.28-29.37
				c7.66-7.93,17.94-12.29,28.96-12.29h2.23c11.02,0,21.3,4.37,28.96,12.29c7.66,7.93,11.66,18.36,11.28,29.37l-1.12,32.06
				C255.65,164.19,237.98,181.26,216.17,181.26z M215.06,80.68c-7.73,0-14.95,3.06-20.33,8.63s-8.18,12.88-7.92,20.62l1.12,32.06
				c0.53,15.3,12.94,27.28,28.24,27.28s27.71-11.98,28.24-27.28l1.12-32.06c0.27-7.73-2.54-15.05-7.92-20.62s-12.59-8.63-20.33-8.63
				H215.06z"/>
		</g>
	</g>
	<g>
		<path class="st0" d="M295.94,361.32c-4.07,0-8.13-0.36-12.06-1.07c-2.23-0.4-4.04-2.03-4.68-4.21l-1.69-5.74l-4.74,3.65
			c-1.8,1.38-4.22,1.63-6.27,0.65c-7.31-3.53-13.87-8.3-19.49-14.19c-1.57-1.64-2.08-4.02-1.32-6.16l2-5.62l-5.97,0.17
			c-2.28,0.06-4.38-1.16-5.45-3.15c-3.87-7.19-6.37-14.91-7.45-22.97c-0.3-2.24,0.69-4.46,2.56-5.74l4.92-3.37l-4.92-3.37
			c-1.87-1.28-2.86-3.5-2.56-5.74c1.08-8.06,3.58-15.79,7.44-22.96c1.07-2,3.2-3.21,5.45-3.15l5.98,0.17l-2-5.62
			c-0.76-2.14-0.25-4.52,1.32-6.16c5.62-5.87,12.18-10.64,19.5-14.18c2.05-0.99,4.47-0.74,6.28,0.65l4.73,3.64l1.69-5.72
			c0.64-2.18,2.46-3.81,4.7-4.21c7.93-1.42,16.19-1.42,24.11,0c2.24,0.4,4.05,2.03,4.7,4.21l1.69,5.72l4.73-3.64
			c1.8-1.39,4.23-1.64,6.28-0.65c7.31,3.54,13.88,8.31,19.5,14.18c1.57,1.64,2.08,4.02,1.32,6.16l-2,5.62l5.98-0.17
			c2.26-0.05,4.38,1.16,5.45,3.15c3.86,7.17,6.36,14.9,7.44,22.96c0.3,2.24-0.69,4.46-2.56,5.74l-4.92,3.37l4.92,3.37
			c1.87,1.28,2.86,3.5,2.56,5.74c-1.08,8.05-3.58,15.78-7.45,22.97c-1.07,2-3.17,3.21-5.45,3.15l-5.98-0.17l2,5.62
			c0.76,2.14,0.25,4.52-1.32,6.16c-5.62,5.88-12.18,10.65-19.49,14.19c-2.04,0.99-4.47,0.74-6.27-0.65l-4.74-3.65l-1.69,5.74
			c-0.64,2.17-2.45,3.8-4.68,4.21C304.07,360.96,300.01,361.32,295.94,361.32z M289.62,348.97c4.16,0.47,8.47,0.47,12.64,0
			l3.08-10.46c0.56-1.9,2.02-3.4,3.9-4.01c1.88-0.61,3.94-0.26,5.51,0.95l8.64,6.65c3.68-2.08,7.09-4.57,10.21-7.43l-3.65-10.26
			c-0.66-1.87-0.36-3.94,0.8-5.54c1.16-1.6,3.05-2.53,5.02-2.47l10.9,0.3c1.76-3.86,3.07-7.88,3.9-12.03l-8.99-6.16
			c-1.63-1.12-2.61-2.97-2.61-4.95s0.98-3.83,2.61-4.95l8.99-6.16c-0.83-4.15-2.14-8.17-3.9-12.02l-10.91,0.3
			c-1.98,0.06-3.86-0.87-5.02-2.47s-1.46-3.67-0.8-5.54l3.65-10.26c-3.12-2.86-6.54-5.35-10.22-7.43l-8.63,6.65
			c-1.57,1.21-3.63,1.56-5.51,0.95c-1.88-0.61-3.34-2.11-3.9-4.01l-3.08-10.44c-4.2-0.47-8.45-0.47-12.65,0l-3.08,10.44
			c-0.56,1.9-2.02,3.4-3.9,4.01c-1.88,0.61-3.95,0.25-5.51-0.95l-8.63-6.65c-3.68,2.09-7.1,4.57-10.22,7.43l3.65,10.26
			c0.66,1.87,0.36,3.94-0.8,5.54c-1.16,1.6-3.05,2.52-5.02,2.47l-10.91-0.3c-1.76,3.85-3.06,7.87-3.9,12.02l8.99,6.16
			c1.63,1.12,2.61,2.97,2.61,4.95s-0.98,3.83-2.61,4.95l-8.99,6.16c0.83,4.15,2.14,8.17,3.9,12.03l10.9-0.3
			c2-0.05,3.86,0.87,5.02,2.47c1.16,1.6,1.46,3.67,0.8,5.54l-3.65,10.26c3.12,2.86,6.53,5.35,10.21,7.43l8.64-6.65
			c1.57-1.21,3.63-1.56,5.51-0.95c1.88,0.61,3.34,2.11,3.9,4.01L289.62,348.97z"/>
		<path class="st0" d="M295.94,321.88c-15.61,0-28.3-12.7-28.3-28.3s12.7-28.3,28.3-28.3s28.3,12.7,28.3,28.3
			S311.54,321.88,295.94,321.88z M295.94,277.28c-8.99,0-16.3,7.31-16.3,16.3s7.31,16.3,16.3,16.3s16.3-7.31,16.3-16.3
			S304.93,277.28,295.94,277.28z"/>
	</g>
</g>
</svg>
